<?xml version="1.0" encoding="UTF-8" standalone="no"?>
<!-- Created with Inkscape (http://www.inkscape.org/) -->

<svg
   xmlns:dc="http://purl.org/dc/elements/1.1/"
   xmlns:cc="http://creativecommons.org/ns#"
   xmlns:rdf="http://www.w3.org/1999/02/22-rdf-syntax-ns#"
   xmlns:svg="http://www.w3.org/2000/svg"
   xmlns="http://www.w3.org/2000/svg"
   xmlns:sodipodi="http://sodipodi.sourceforge.net/DTD/sodipodi-0.dtd"
   xmlns:inkscape="http://www.inkscape.org/namespaces/inkscape"
   width="80mm"
   height="80mm"
   viewBox="0 0 80 80"
   version="1.1"
   id="svg8"
   sodipodi:docname="webnavGold.svg"
   inkscape:version="0.92.4 (5da689c313, 2019-01-14)"
   inkscape:export-filename="D:\Desktop\webnav.png"
   inkscape:export-xdpi="96"
   inkscape:export-ydpi="96">
  <defs
     id="defs2" />
  <sodipodi:namedview
     id="base"
     pagecolor="#ffffff"
     bordercolor="#666666"
     borderopacity="1.0"
     inkscape:pageopacity="0.0"
     inkscape:pageshadow="2"
     inkscape:zoom="1.4"
     inkscape:cx="197.03895"
     inkscape:cy="174.82056"
     inkscape:document-units="mm"
     inkscape:current-layer="layer1"
     showgrid="false"
     inkscape:window-width="1819"
     inkscape:window-height="1046"
     inkscape:window-x="90"
     inkscape:window-y="-11"
     inkscape:window-maximized="1" />
  <metadata
     id="metadata5">
    <rdf:RDF>
      <cc:Work
         rdf:about="">
        <dc:format>image/svg+xml</dc:format>
        <dc:type
           rdf:resource="http://purl.org/dc/dcmitype/StillImage" />
        <dc:title></dc:title>
      </cc:Work>
    </rdf:RDF>
  </metadata>
  <g
     inkscape:label="Layer 1"
     inkscape:groupmode="layer"
     id="layer1"
     transform="translate(0,-217)">
    <path
       style="fill:#c8aa50;stroke-width:0.26458332;fill-opacity:1"
       d="m 39.215027,289.11184 v -4.46747 l -1.58823,-1.3007 c -4.25489,-3.48459 -9.753234,-5.74543 -14.815937,-6.09209 l -1.984375,-0.13588 -3.103012,3.11873 c -3.076461,3.09205 -3.107684,3.1145 -3.649115,2.62451 -0.544536,-0.4928 -0.537333,-0.50301 2.507699,-3.556 l 3.053803,-3.06177 v -1.35586 c 0,-1.93993 -0.704828,-5.38877 -1.605826,-7.85756 -0.920574,-2.52243 -2.307922,-4.9269 -4.344738,-7.53004 l -1.487993,-1.90172 H 7.7144984 3.2316944 v -0.66146 -0.66146 h 4.479289 4.4792896 l 1.745903,-2.18211 c 3.163481,-3.95386 5.312629,-9.35774 5.60356,-14.08976 l 0.146403,-2.38125 -3.05999,-3.03056 c -2.906085,-2.87813 -3.037857,-3.05501 -2.619925,-3.51682 0.420423,-0.46457 0.578571,-0.34813 3.54306,2.60864 l 3.102994,3.09491 2.349822,-0.16679 c 5.229671,-0.37122 10.505271,-2.61136 14.956157,-6.35073 l 1.25677,-1.05586 v -4.4565 -4.4565 h 0.66146 0.66146 v 4.45172 4.45172 l 1.71576,1.39207 c 4.63206,3.7582 10.616081,6.09909 15.610471,6.10666 l 1.31894,0.002 3.06178,-3.05381 c 3.04427,-3.03634 3.06459,-3.0507 3.55189,-2.51224 0.48449,0.53536 0.45452,0.57712 -2.61865,3.64911 l -3.10876,3.10756 0.14505,2.11667 c 0.34315,5.00777 2.61334,10.46685 6.11484,14.70424 l 1.29539,1.56763 h 4.44831 4.44831 v 0.66146 0.66146 h -4.36631 -4.36632 l -0.9915,1.09259 c -1.70715,1.88122 -2.73374,3.44876 -4.04955,6.18345 -1.45705,3.02824 -2.31253,6.10448 -2.54848,9.1642 l -0.16371,2.12302 3.1497,3.16767 c 3.00226,3.01937 3.12535,3.18582 2.62943,3.55555 -0.48725,0.36326 -0.71693,0.19176 -3.61681,-2.70056 l -3.09653,-3.08846 -2.12301,0.16372 c -5.430981,0.4188 -11.335651,2.95725 -15.347651,6.59803 l -1.09259,0.99149 v 4.36632 4.36631 h -0.66146 -0.66146 z m -1.21818,-14.50135 c -2.20693,-1.96393 -5.670428,-3.40669 -9.371023,-3.9036 l -1.196493,-0.16066 -2.573819,2.51592 c -1.4156,1.38375 -2.573819,2.56051 -2.573819,2.61501 0,0.0545 0.818053,0.17512 1.817896,0.26804 4.104141,0.38145 9.54712,2.56271 13.131058,5.26226 l 1.85209,1.39505 0.0804,-3.44128 0.0804,-3.44128 z m 8.92305,3.95175 c 2.69832,-1.31827 6.267761,-2.38787 8.733481,-2.61704 0.99985,-0.0929 1.8179,-0.24363 1.8179,-0.33491 0,-0.0913 -1.0418,-1.19958 -2.31511,-2.46288 l -2.3151,-2.29693 -1.873441,0.23904 c -3.51742,0.44881 -6.71702,1.81951 -9.3482,4.00474 l -1.07195,0.89027 -0.005,3.37234 -0.005,3.37234 2.07402,-1.5378 c 1.14071,-0.84578 3.07928,-2.02891 4.30793,-2.62917 z m -23.087917,-6.50909 2.465878,-2.47617 -0.188249,-1.55873 c -0.410359,-3.39782 -1.916923,-6.93907 -3.955584,-9.29778 l -0.971899,-1.12448 H 17.76316 c -1.880432,0 -3.418966,0.0592 -3.418966,0.13155 0,0.0724 0.542013,0.86782 1.204473,1.76771 2.422389,3.29058 3.926283,6.56865 4.887957,10.65439 0.275834,1.1719 0.529437,2.63674 0.563563,3.2552 0.03412,0.61847 0.130417,1.12448 0.213981,1.12448 0.08356,0 1.26158,-1.11428 2.617812,-2.47617 z m 35.055178,0.65828 c 0.38562,-4.14912 2.44102,-9.25806 5.24739,-13.04301 l 1.53661,-2.07243 h -3.56462 -3.56462 l -1.0752,1.36023 c -2.12749,2.69147 -3.16172,5.11128 -3.7186,8.70048 l -0.29728,1.91599 2.46802,2.47831 c 1.3574,1.36308 2.54256,2.47832 2.63368,2.47832 0.0911,0 0.2417,-0.81805 0.33462,-1.81789 z M 44.381077,271.5449 c 1.40067,-0.70412 4.31393,-1.6239 6.05408,-1.91142 l 1.03367,-0.17078 -2.61621,-2.62607 c -1.6623,-1.66857 -2.81974,-2.62606 -3.17443,-2.62606 -0.9894,0 -3.04659,0.73773 -4.10765,1.47305 l -1.03259,0.71559 v 3.823 3.82301 l 1.25677,-0.91597 c 0.69122,-0.50379 1.85508,-1.21675 2.58636,-1.58435 z m -5.16605,-1.64203 v -3.56812 l -0.99219,-0.65493 c -1.13274,-0.7477 -3.04087,-1.47068 -3.869723,-1.46623 -0.345191,0.002 -1.559107,0.95332 -3.146252,2.46603 l -2.584209,2.46301 1.92275,0.42017 c 2.783679,0.60831 4.761354,1.41703 6.629394,2.71092 0.90385,0.62604 1.73265,1.15154 1.84179,1.16776 0.10914,0.0162 0.19844,-1.57615 0.19844,-3.53861 z m -6.61606,-7.27457 c -0.0024,-1.10147 -0.475031,-2.46443 -1.312307,-3.78467 l -0.791229,-1.24764 h -3.577702 c -1.967736,0 -3.577702,0.0592 -3.577702,0.13168 0,0.0724 0.402467,0.6975 0.894373,1.38906 1.598073,2.2467 2.792625,5.20511 3.218317,7.97043 l 0.178077,1.15681 2.484825,-2.4745 c 1.828255,-1.82065 2.484435,-2.65065 2.483348,-3.14117 z m 19.87026,3.80816 c 0.416941,-2.26815 1.679051,-5.36646 2.890531,-7.09592 0.57925,-0.82691 1.05319,-1.55771 1.05319,-1.62401 0,-0.0663 -1.59116,-0.12054 -3.5359,-0.12054 h -3.535891 l -0.68659,0.99219 c -0.80437,1.16238 -1.50204,3.01893 -1.50204,3.99704 0,0.51568 0.61319,1.30512 2.43377,3.1333 1.33858,1.34417 2.47014,2.40759 2.51457,2.36316 0.0444,-0.0444 0.21019,-0.78478 0.36836,-1.64522 z m -13.2542,-4.73943 c 0,-1.52797 -0.0473,-2.77812 -0.10511,-2.77812 -0.0578,0 -0.95788,0.86126 -2.00017,1.91393 -1.80818,1.82619 -1.86704,1.92412 -1.28395,2.13633 0.33611,0.12232 1.14689,0.49703 1.80173,0.83269 0.65484,0.33566 1.27992,0.62447 1.38906,0.64179 0.10914,0.0173 0.19844,-1.21865 0.19844,-2.74662 z m 2.43227,2.27155 c 0.48126,-0.27861 1.38725,-0.65651 2.01331,-0.83976 l 1.13829,-0.3332 -1.92542,-1.93836 c -1.05898,-1.06609 -2.01769,-1.93835 -2.13047,-1.93835 -0.11279,0 -0.20506,1.25015 -0.20506,2.77812 0,1.52797 0.0527,2.77813 0.11716,2.77813 0.0645,0 0.51093,-0.22796 0.99219,-0.50658 z m -3.75519,-6.16753 c 0,-0.11279 -1.25216,-0.20506 -2.78258,-0.20506 h -2.782581 l 0.633315,1.25677 c 0.348323,0.69122 0.720113,1.658 0.826198,2.14839 l 0.192881,0.89161 1.956387,-1.94332 c 1.07601,-1.06884 1.95638,-2.03561 1.95638,-2.14839 z m 9.23824,0.50503 c 0.59845,-0.59844 0.20674,-0.71009 -2.49136,-0.71009 -1.52797,0 -2.77813,0.0865 -2.77813,0.19221 0,0.10572 0.85818,1.05617 1.90707,2.1121 l 1.90707,1.91988 0.58429,-1.61367 c 0.32137,-0.88751 0.71334,-1.74271 0.87106,-1.90043 z m -24.768066,-3.30247 c 1.956753,-2.41833 3.888162,-7.46404 3.888162,-10.15764 0,-0.40504 -0.797657,-1.40248 -2.44217,-3.05386 -1.343193,-1.34881 -2.510541,-2.45237 -2.594105,-2.45237 -0.08356,0 -0.181072,0.50602 -0.216684,1.12448 -0.255331,4.43423 -2.349291,9.77314 -5.44801,13.89062 l -1.443614,1.91823 3.624896,-0.0127 3.624896,-0.0127 1.006629,-1.24408 z m 8.924379,0.0218 c 0.834681,-1.31616 1.309854,-2.68285 1.312307,-3.77447 0.0011,-0.47538 -0.672021,-1.3328 -2.439834,-3.10799 l -2.441309,-2.45151 -0.461128,2.14354 c -0.52916,2.45977 -1.808527,5.41003 -3.056774,7.049 -0.472942,0.62098 -0.859895,1.18756 -0.859895,1.25906 0,0.0715 1.609966,0.13 3.577702,0.13 h 3.577702 l 0.791229,-1.24764 z m 5.017947,-0.73674 c -1.975046,-1.98832 -2.381067,-2.27025 -2.381456,-1.65365 -1.14e-4,0.1819 -0.352245,1.07487 -0.782516,1.98438 l -0.782304,1.65364 h 2.958706 2.9587 z m 10.4555,0.67025 c -0.36625,-0.72276 -0.66774,-1.46691 -0.66997,-1.65365 -0.002,-0.18673 -0.10821,-0.50399 -0.23553,-0.705 -0.17661,-0.27886 -0.67734,0.083 -2.11261,1.52688 -1.03463,1.0408 -1.88114,1.94941 -1.88114,2.01913 0,0.0697 1.25216,0.12676 2.78259,0.12676 h 2.78258 z m 9.652841,1.21687 c 0,-0.0535 -0.52432,-0.87915 -1.16515,-1.8348 -1.3207,-1.96951 -2.13786,-3.96839 -2.730231,-6.67854 l -0.40737,-1.86372 -2.47883,2.4869 c -1.66967,1.6751 -2.47884,2.68288 -2.47884,3.08723 0,0.89755 0.72609,2.78668 1.50204,3.90799 l 0.68659,0.99219 h 3.535891 c 1.94474,0 3.5359,-0.0438 3.5359,-0.0972 z m 7.99636,-1.57114 c -1.60476,-2.09373 -3.05496,-4.67384 -3.92931,-6.99074 -0.80408,-2.13071 -1.67206,-5.89284 -1.68008,-7.28201 -0.003,-0.54571 -0.061,-0.99219 -0.12862,-0.99219 -0.0676,0 -1.25415,1.14419 -2.63679,2.54265 l -2.51388,2.54264 0.14707,1.22767 c 0.42159,3.51932 1.88444,7.09996 3.82544,9.3636 l 1.07764,1.25677 h 3.55865 3.55864 z m -20.632911,-3.76924 c -0.54422,-0.16281 -1.49551,-0.55618 -2.11398,-0.87415 l -1.12447,-0.57814 v 2.97573 2.97574 l 2.11397,-2.10158 2.11398,-2.10158 z m -4.56137,1.34751 v -2.76721 l -1.25677,0.62997 c -0.69123,0.34649 -1.58419,0.71167 -1.98438,0.81152 -0.40018,0.0998 -0.7276,0.25494 -0.7276,0.34466 0,0.24012 3.52213,3.74827 3.76322,3.74827 0.11304,0 0.20553,-1.24525 0.20553,-2.76721 z m -1.83802,-3.48369 c 0.72489,-0.39454 1.43854,-0.8626 1.58588,-1.04015 0.15964,-0.19234 0.23799,-1.72525 0.19388,-3.79304 l -0.074,-3.47025 -1.23255,0.87684 c -1.88366,1.34003 -4.761556,2.56415 -7.121205,3.02903 l -2.129654,0.41956 2.463579,2.48967 2.463578,2.48966 1.266274,-0.142 c 0.696448,-0.0781 1.859368,-0.46479 2.584248,-0.85932 z m 11.33442,-1.52559 2.47449,-2.48483 -1.1568,-0.17808 c -2.76532,-0.42569 -5.72373,-1.62024 -7.97043,-3.21831 -0.69156,-0.49191 -1.31664,-0.89438 -1.38906,-0.89438 -0.0724,0 -0.13168,1.60566 -0.13168,3.56812 v 3.56812 l 1.04581,0.69209 c 1.28263,0.84881 2.79186,1.40504 3.8542,1.42048 0.66319,0.01 1.21953,-0.4107 3.27347,-2.47321 z m -18.282642,-4.27955 c 2.48289,-0.50448 5.833062,-2.08965 7.529472,-3.56263 l 1.25677,-1.09126 v -3.53816 -3.53816 l -1.91823,1.44361 c -4.0851,3.07435 -9.491262,5.19469 -13.890624,5.44801 -0.618464,0.0356 -1.12448,0.12853 -1.12448,0.20649 0,0.0779 1.098977,1.2453 2.442171,2.5941 1.675041,1.68204 2.634313,2.45237 3.053862,2.45237 0.336431,0 1.529407,-0.18647 2.651059,-0.41437 z m 24.590123,-2.0278 c 1.3488,-1.34319 2.45237,-2.51054 2.45237,-2.59411 0,-0.0836 -0.50602,-0.18068 -1.12448,-0.21581 -4.118821,-0.23399 -9.547841,-2.32961 -13.640021,-5.2651 -1.06502,-0.76398 -1.9887,-1.38906 -2.05262,-1.38906 -0.0639,0 -0.11621,1.53853 -0.11621,3.41897 v 3.41896 l 1.12447,0.9719 c 2.17188,1.87718 5.30023,3.3118 8.33629,3.82292 2.46272,0.4146 2.39812,0.44251 5.020201,-2.16867 z"
       id="path21"
       inkscape:connector-curvature="0" />
    <circle
       id="path23"
       cx="40.030258"
       cy="256.99924"
       style="opacity:1;fill:none;stroke:#c8aa50;stroke-width:5.6;stroke-miterlimit:4;stroke-dasharray:none;stroke-opacity:1"
       r="26.704041" />
    <ellipse
       style="opacity:1;fill:#c8aa50;fill-opacity:1;stroke:none;stroke-width:5.5999999;stroke-miterlimit:4;stroke-dasharray:none;stroke-opacity:1"
       id="path816"
       cx="39.883202"
       cy="222.4279"
       rx="2.2160783"
       ry="3.58569" />
    <ellipse
       style="opacity:1;fill:#c8aa50;fill-opacity:1;stroke:none;stroke-width:5.5999999;stroke-miterlimit:4;stroke-dasharray:none;stroke-opacity:1"
       id="path816-2"
       cx="39.961121"
       cy="291.72137"
       rx="2.2160783"
       ry="3.58569" />
    <ellipse
       style="opacity:1;fill:#c8aa50;fill-opacity:1;stroke:none;stroke-width:5.5999999;stroke-miterlimit:4;stroke-dasharray:none;stroke-opacity:1"
       id="path816-2-1"
       cx="256.97632"
       cy="-74.839798"
       rx="2.2160783"
       ry="3.58569"
       transform="rotate(90)" />
    <ellipse
       style="opacity:1;fill:#c8aa50;fill-opacity:1;stroke:none;stroke-width:5.5999999;stroke-miterlimit:4;stroke-dasharray:none;stroke-opacity:1"
       id="path816-2-1-8"
       cx="256.97632"
       cy="-5.6169934"
       rx="2.2160783"
       ry="3.58569"
       transform="rotate(90)" />
    <ellipse
       style="opacity:1;fill:#c8aa50;fill-opacity:1;stroke:none;stroke-width:5.5999999;stroke-miterlimit:4;stroke-dasharray:none;stroke-opacity:1"
       id="path816-2-19"
       cx="-153.45291"
       cy="245.11827"
       rx="2.2160783"
       ry="3.58569"
       transform="rotate(-45)" />
    <ellipse
       style="opacity:1;fill:#c8aa50;fill-opacity:1;stroke:none;stroke-width:5.5999999;stroke-miterlimit:4;stroke-dasharray:none;stroke-opacity:1"
       id="path816-2-19-1"
       cx="-153.54741"
       cy="175.09818"
       rx="2.2160783"
       ry="3.58569"
       transform="rotate(-45)" />
    <ellipse
       style="opacity:1;fill:#c8aa50;fill-opacity:1;stroke:none;stroke-width:5.5999999;stroke-miterlimit:4;stroke-dasharray:none;stroke-opacity:1"
       id="path816-2-19-4"
       cx="209.87198"
       cy="188.69922"
       rx="2.2160783"
       ry="3.58569"
       transform="rotate(45)" />
    <ellipse
       style="opacity:1;fill:#c8aa50;fill-opacity:1;stroke:none;stroke-width:5.5999999;stroke-miterlimit:4;stroke-dasharray:none;stroke-opacity:1"
       id="path816-2-19-4-4"
       cx="209.96649"
       cy="117.92316"
       rx="2.2160783"
       ry="3.58569"
       transform="rotate(45)" />
    <circle
       style="opacity:1;fill:none;fill-opacity:0;stroke:#c8aa50;stroke-width:2.15783906;stroke-miterlimit:4;stroke-dasharray:none;stroke-opacity:1"
       id="path4626"
       cx="39.96344"
       cy="257.06607"
       r="6.7794542" />
  </g>
</svg>
