<?xml version="1.0" encoding="UTF-8" standalone="no"?>
<!-- Created with Inkscape (http://www.inkscape.org/) -->

<svg
   xmlns:dc="http://purl.org/dc/elements/1.1/"
   xmlns:cc="http://creativecommons.org/ns#"
   xmlns:rdf="http://www.w3.org/1999/02/22-rdf-syntax-ns#"
   xmlns:svg="http://www.w3.org/2000/svg"
   xmlns="http://www.w3.org/2000/svg"
   xmlns:sodipodi="http://sodipodi.sourceforge.net/DTD/sodipodi-0.dtd"
   xmlns:inkscape="http://www.inkscape.org/namespaces/inkscape"
   width="512"
   height="512"
   viewBox="0 0 135.46666 135.46666"
   version="1.1"
   id="svg8"
   sodipodi:docname="webnavGold.svg"
   inkscape:version="0.92.4 (5da689c313, 2019-01-14)"
   inkscape:export-filename="D:\Desktop\webnavGold.png"
   inkscape:export-xdpi="161.925"
   inkscape:export-ydpi="161.925"
   shape-rendering="crispEdges">
  <defs
     id="defs2" />
  <sodipodi:namedview
     id="base"
     pagecolor="#ffffff"
     bordercolor="#666666"
     borderopacity="1.0"
     inkscape:pageopacity="0.0"
     inkscape:pageshadow="2"
     inkscape:zoom="1.4"
     inkscape:cx="197.03895"
     inkscape:cy="260.53485"
     inkscape:document-units="mm"
     inkscape:current-layer="layer1"
     showgrid="false"
     inkscape:window-width="1819"
     inkscape:window-height="1046"
     inkscape:window-x="90"
     inkscape:window-y="-11"
     inkscape:window-maximized="1"
     units="px" />
  <metadata
     id="metadata5">
    <rdf:RDF>
      <cc:Work
         rdf:about="">
        <dc:format>image/svg+xml</dc:format>
        <dc:type
           rdf:resource="http://purl.org/dc/dcmitype/StillImage" />
        <dc:title></dc:title>
      </cc:Work>
    </rdf:RDF>
  </metadata>
  <g
     inkscape:label="Layer 1"
     inkscape:groupmode="layer"
     id="layer1"
     transform="translate(0,-161.53334)">
    <path
       style="fill:#c8aa50;fill-opacity:1;stroke-width:0.45618647"
       d="m 66.142344,284.62545 v -7.70268 l -2.738377,-2.24263 C 56.067815,268.67212 46.587738,264.77405 37.85878,264.17635 l -3.421398,-0.23428 -5.350119,5.37722 c -5.30434,5.33122 -5.358174,5.36992 -6.291693,4.5251 -0.938872,-0.84967 -0.926453,-0.86728 4.323699,-6.13115 l 5.265273,-5.27901 v -2.33773 c 0,-3.34477 -1.215243,-9.29115 -2.768716,-13.54777 -1.587225,-4.34909 -3.979248,-8.49481 -7.491064,-12.98306 L 19.55921,230.28678 H 11.830095 4.1009809 v -1.14047 -1.14047 h 7.7230531 7.723055 l 3.010232,-3.76232 c 5.454378,-6.81713 9.159873,-16.13433 9.661487,-24.29314 l 0.252424,-4.10568 -5.275941,-5.2252 c -5.010583,-4.96238 -5.237781,-5.26735 -4.517195,-6.06359 0.72488,-0.801 0.997554,-0.60023 6.108836,4.49774 l 5.350087,5.33615 4.051492,-0.28758 c 9.016839,-0.64004 18.112867,-4.50242 25.786949,-10.94973 l 2.166884,-1.82048 v -7.68376 -7.68377 h 1.14047 1.140469 v 7.67552 7.67552 l 2.958261,2.40017 c 7.986456,6.47977 18.303922,10.51586 26.915097,10.52891 l 2.274079,0.003 5.27902,-5.26528 c 5.24884,-5.23517 5.28388,-5.25993 6.12407,-4.33153 0.83534,0.92305 0.78366,0.99505 -4.515,6.29168 l -5.36003,5.35796 0.25009,3.6495 c 0.59165,8.63425 4.50584,18.04662 10.54302,25.3526 l 2.23347,2.70286 h 7.66964 7.66964 v 1.14047 1.14047 h -7.52826 -7.52827 l -1.70951,1.88381 c -2.94342,3.24354 -4.71344,5.94625 -6.98212,10.66132 -2.5122,5.2212 -3.98719,10.52516 -4.39401,15.80063 l -0.28226,3.66045 5.43062,5.4616 c 5.1764,5.2059 5.38863,5.49289 4.53358,6.13037 -0.8401,0.62632 -1.23611,0.33062 -6.23599,-4.65623 l -5.33895,-5.32502 -3.660426,0.28228 c -9.363931,0.72208 -19.544583,5.0988 -26.461951,11.37612 l -1.88381,1.7095 v 7.52827 7.52826 h -1.140469 -1.14047 z m -2.100348,-25.00279 c -3.805122,-3.38615 -9.776779,-5.87371 -16.157232,-6.73047 l -2.062957,-0.277 -4.4377,4.33787 c -2.440734,2.38582 -4.4377,4.41476 -4.4377,4.50872 0,0.094 1.410462,0.30194 3.134361,0.46215 7.076234,0.65768 16.460852,4.41855 22.640169,9.07303 l 3.193317,2.4053 0.138623,-5.93335 0.138623,-5.93335 z m 15.38485,6.81349 c 4.652361,-2.27292 10.806682,-4.11709 15.058001,-4.51222 1.723911,-0.16018 3.134368,-0.42006 3.134368,-0.57744 0,-0.15742 -1.79624,-2.06828 -3.991642,-4.24643 l -3.991625,-3.96029 -3.23013,0.41214 c -6.064628,0.77383 -11.58128,3.13715 -16.117881,6.90485 l -1.848223,1.53498 -0.0086,5.81449 -0.0086,5.81448 3.575962,-2.65143 c 1.966778,-1.45826 5.309201,-3.49818 7.427602,-4.53313 z m -39.807482,-11.22277 4.251592,-4.26934 -0.324573,-2.68752 c -0.707529,-5.85841 -3.3051,-11.96413 -6.820097,-16.03094 l -1.675719,-1.9388 H 29.15569 c -3.242183,0 -5.894877,0.10207 -5.894877,0.22682 0,0.12483 0.934523,1.49626 2.076716,3.04783 4.176609,5.67351 6.769577,11.32546 8.427666,18.36997 0.475585,2.02056 0.912839,4.54619 0.971678,5.61252 0.05883,1.06634 0.224861,1.93879 0.36894,1.93879 0.144071,0 2.175178,-1.92121 4.513551,-4.26933 z m 60.441066,1.13498 c 0.66488,-7.15378 4.20873,-15.96246 9.04739,-22.48836 l 2.64938,-3.57322 h -6.14601 -6.14601 l -1.853827,2.34527 c -3.668154,4.64055 -5.451341,8.81271 -6.411497,15.0011 l -0.512561,3.30349 4.255285,4.27303 c 2.340387,2.35018 4.383804,4.27304 4.54091,4.27304 0.157072,0 0.416732,-1.41046 0.57694,-3.13435 z m -25.01094,-2.01129 c 2.414993,-1.21403 7.437946,-2.79988 10.43826,-3.29562 l 1.782222,-0.29445 -4.510789,-4.52779 c -2.866087,-2.8769 -4.86171,-4.52777 -5.473255,-4.52777 -1.705894,0 -5.252838,1.27197 -7.082285,2.53979 l -1.78036,1.23379 v 6.5915 6.59152 l 2.166884,-1.57929 c 1.191781,-0.86862 3.198472,-2.09788 4.459323,-2.73168 z m -8.907146,-2.83114 v -6.15205 l -1.710703,-1.12921 c -1.953036,-1.28916 -5.242976,-2.5357 -6.672059,-2.52802 -0.595167,0.003 -2.688164,1.64368 -5.424671,4.25185 l -4.455614,4.24665 3.315146,0.72444 c 4.799535,1.04883 8.209382,2.4432 11.430199,4.67409 1.558391,1.07939 2.987382,1.98545 3.175558,2.01341 0.188176,0.0279 0.342144,-2.71755 0.342144,-6.10116 z M 54.735136,238.96334 c -0.0041,-1.89912 -0.819034,-4.2491 -2.26264,-6.52542 l -1.364213,-2.15114 h -6.168564 c -3.392711,0 -6.168565,0.10207 -6.168565,0.22704 0,0.12483 0.693921,1.20261 1.542051,2.39497 2.755348,3.8737 4.814958,8.9745 5.548924,13.74238 l 0.307035,1.99453 4.284259,-4.26645 c 3.152221,-3.13911 4.283587,-4.57017 4.281713,-5.41591 z m 34.259695,6.56591 c 0.718877,-3.91068 2.894969,-9.25269 4.983766,-12.23457 0.998725,-1.42573 1.815878,-2.68576 1.815878,-2.80007 0,-0.11431 -2.74343,-0.20783 -6.096491,-0.20783 h -6.096475 l -1.183798,1.7107 c -1.38687,2.00414 -2.589771,5.20515 -2.589771,6.89158 0,0.88912 1.057243,2.25025 4.196231,5.40234 2.307939,2.31758 4.25894,4.15109 4.335545,4.07449 0.07655,-0.0766 0.362403,-1.3531 0.635115,-2.83664 z m -22.852487,-8.17158 c 0,-2.63448 -0.08155,-4.78995 -0.181227,-4.78995 -0.09966,0 -1.651548,1.48496 -3.448632,3.29994 -3.117609,3.14866 -3.219093,3.31751 -2.213748,3.68339 0.579511,0.2109 1.977433,0.85697 3.106488,1.4357 1.129055,0.57874 2.206799,1.07669 2.394975,1.10656 0.188176,0.0298 0.342144,-2.10116 0.342144,-4.73564 z m 4.193646,3.91654 c 0.829774,-0.48037 2.391854,-1.13194 3.471288,-1.44789 l 1.962605,-0.5745 -3.319751,-3.34206 c -1.825861,-1.83812 -3.478839,-3.34204 -3.673291,-3.34204 -0.194469,0 -0.353558,2.15547 -0.353558,4.78995 0,2.63448 0.09086,4.78997 0.202003,4.78997 0.111209,0 0.88093,-0.39305 1.710704,-0.87343 z m -6.474584,-10.63387 c 0,-0.19447 -2.158936,-0.35356 -4.797639,-0.35356 h -4.797642 l 1.091943,2.16689 c 0.600568,1.19178 1.241597,2.85867 1.424505,3.70418 l 0.33256,1.53729 3.373142,-3.35061 c 1.855224,-1.84286 3.373131,-3.50974 3.373131,-3.70419 z m 15.928291,0.87076 c 1.03183,-1.03182 0.356455,-1.22432 -4.295526,-1.22432 -2.63448,0 -4.789967,0.14914 -4.789967,0.3314 0,0.18228 1.479647,1.82102 3.288112,3.64162 l 3.288111,3.3102 1.007415,-2.78224 c 0.554097,-1.53022 1.229919,-3.00473 1.501855,-3.27666 z m -42.704343,-5.69402 c 3.373774,-4.16961 6.70385,-12.86927 6.70385,-17.51349 0,-0.69836 -1.375295,-2.41812 -4.210714,-5.26538 -2.315893,-2.32557 -4.328599,-4.2283 -4.472677,-4.2283 -0.144072,0 -0.312199,0.87247 -0.3736,1.9388 -0.440234,7.64536 -4.050576,16.85055 -9.393293,23.94978 l -2.489035,3.30735 6.249935,-0.0219 6.249935,-0.0219 1.735599,-2.14501 z m 15.387142,0.0376 c 1.439132,-2.26929 2.25841,-4.62569 2.26264,-6.50783 0.0019,-0.81964 -1.158678,-2.29797 -4.206688,-5.3587 l -4.20923,-4.22682 -0.795063,3.69583 c -0.912361,4.24106 -3.118207,9.3278 -5.270396,12.15367 -0.815432,1.07067 -1.482605,2.04755 -1.482605,2.17083 0,0.12328 2.775854,0.22414 6.168565,0.22414 h 6.168564 l 1.364213,-2.15114 z m 8.651791,-1.27027 c -3.405314,-3.4282 -4.105363,-3.91429 -4.106034,-2.85117 -1.96e-4,0.31362 -0.60733,1.85326 -1.34919,3.42141 l -1.348825,2.85115 h 5.101311 5.1013 z m 18.027054,1.15563 c -0.631477,-1.24617 -1.151297,-2.52921 -1.155142,-2.85118 -0.0034,-0.32195 -0.186572,-0.86896 -0.406093,-1.21554 -0.304506,-0.4808 -1.167849,0.14311 -3.642498,2.6326 -1.783878,1.79452 -3.243404,3.36112 -3.243404,3.48133 0,0.12017 2.158936,0.21855 4.797656,0.21855 h 4.79764 z m 16.643134,2.09809 c 0,-0.0923 -0.904017,-1.51581 -2.008916,-3.16351 -2.277111,-3.39577 -3.686033,-6.84218 -4.707381,-11.51494 l -0.702375,-3.21336 -4.273923,4.28783 c -2.878794,2.88816 -4.27394,4.62574 -4.27394,5.32291 0,1.54753 1.251902,4.80471 2.589771,6.73804 l 1.183798,1.7107 h 6.096475 c 3.353061,0 6.096491,-0.0755 6.096491,-0.16759 z m 13.787075,-2.70892 c -2.76687,-3.60994 -5.26726,-8.05849 -6.77479,-12.05322 -1.38637,-3.6737 -2.882917,-10.16025 -2.896744,-12.55542 -0.0052,-0.94089 -0.105175,-1.7107 -0.221763,-1.7107 -0.116554,0 -2.162367,1.97278 -4.546273,4.38396 l -4.334355,4.38394 0.253573,2.11671 c 0.726893,6.06791 3.249094,12.24154 6.595707,16.14444 l 1.858034,2.16688 h 6.135711 6.1357 z m -35.574631,-6.4988 c -0.938327,-0.28072 -2.578512,-0.95895 -3.644859,-1.50719 l -1.938777,-0.99681 v 5.13066 5.13068 l 3.644842,-3.62348 3.64486,-3.62348 z m -7.864575,2.32333 v -4.77114 l -2.166884,1.08618 c -1.191798,0.5974 -2.731412,1.22704 -3.421407,1.3992 -0.689979,0.17207 -1.254506,0.43955 -1.254506,0.59425 0,0.41401 6.072749,6.46265 6.488429,6.46265 0.1949,0 0.354368,-2.14702 0.354368,-4.77114 z m -3.169058,-6.00647 c 1.249834,-0.68025 2.480287,-1.48727 2.734326,-1.7934 0.275247,-0.33162 0.410335,-2.97462 0.334282,-6.53984 l -0.127588,-5.9833 -2.125125,1.51182 c -3.247749,2.31044 -8.20973,4.42103 -12.278165,5.22256 l -3.671884,0.7234 4.247628,4.29261 4.247626,4.29259 2.183271,-0.24483 c 1.200794,-0.13466 3.205865,-0.80137 4.455681,-1.48161 z m 19.542461,-2.63038 4.26644,-4.28426 -1.994519,-0.30704 c -4.76788,-0.73397 -9.86868,-2.79357 -13.742372,-5.54892 -1.192367,-0.84813 -2.27011,-1.54206 -2.394975,-1.54206 -0.12483,0 -0.227038,2.76843 -0.227038,6.15204 v 6.15205 l 1.803153,1.19328 c 2.211472,1.46349 4.81364,2.42253 6.645294,2.44915 1.143452,0.0172 2.102677,-0.70812 5.644017,-4.26424 z m -31.522373,-7.37867 c 4.280923,-0.8698 10.057188,-3.60291 12.982086,-6.14257 l 2.166884,-1.88152 v -6.10039 -6.10039 l -3.307353,2.48903 c -7.043405,5.3007 -16.364544,8.95653 -23.94979,9.39329 -1.066337,0.0614 -1.938794,0.22161 -1.938794,0.35603 0,0.13431 1.894822,2.14711 4.210717,4.47267 2.888054,2.90012 4.542002,4.2283 5.265375,4.2283 0.580064,0 2.636957,-0.32151 4.570875,-0.71445 z m 42.397539,-3.49627 c 2.32556,-2.31588 4.228302,-4.32859 4.228302,-4.47268 0,-0.14414 -0.872464,-0.31153 -1.938794,-0.3721 -7.101546,-0.40343 -16.462096,-4.01664 -23.517708,-9.07792 -1.836275,-1.31723 -3.428856,-2.39497 -3.539065,-2.39497 -0.110174,0 -0.200365,2.65268 -0.200365,5.89488 v 5.89487 l 1.938777,1.67572 c 3.744689,3.23657 9.138494,5.7101 14.373176,6.59136 4.246147,0.71484 4.134765,0.76296 8.655677,-3.73916 z"
       id="path21"
       inkscape:connector-curvature="0" />
    <circle
       id="path23"
       cx="67.547943"
       cy="229.25787"
       style="opacity:1;fill:none;stroke:#c8aa50;stroke-width:9.65534878;stroke-miterlimit:4;stroke-dasharray:none;stroke-opacity:1"
       r="46.04229" />
    <ellipse
       style="opacity:1;fill:#c8aa50;fill-opacity:1;stroke:none;stroke-width:9.65534878;stroke-miterlimit:4;stroke-dasharray:none;stroke-opacity:1"
       id="path816"
       cx="67.294388"
       cy="169.65103"
       rx="3.8208945"
       ry="6.1823373" />
    <ellipse
       style="opacity:1;fill:#c8aa50;fill-opacity:1;stroke:none;stroke-width:9.65534878;stroke-miterlimit:4;stroke-dasharray:none;stroke-opacity:1"
       id="path816-2"
       cx="67.428734"
       cy="289.12473"
       rx="3.8208945"
       ry="6.1823373" />
    <ellipse
       style="opacity:1;fill:#c8aa50;fill-opacity:1;stroke:none;stroke-width:9.65534878;stroke-miterlimit:4;stroke-dasharray:none;stroke-opacity:1"
       id="path816-2-1"
       cx="229.21837"
       cy="-127.56548"
       rx="3.8208945"
       ry="6.1823373"
       transform="rotate(90)" />
    <ellipse
       style="opacity:1;fill:#c8aa50;fill-opacity:1;stroke:none;stroke-width:9.65534878;stroke-miterlimit:4;stroke-dasharray:none;stroke-opacity:1"
       id="path816-2-1-8"
       cx="229.21837"
       cy="-8.2136402"
       rx="3.8208945"
       ry="6.1823373"
       transform="rotate(90)" />
    <ellipse
       style="opacity:1;fill:#c8aa50;fill-opacity:1;stroke:none;stroke-width:9.65534878;stroke-miterlimit:4;stroke-dasharray:none;stroke-opacity:1"
       id="path816-2-19"
       cx="-114.40253"
       cy="270.36884"
       rx="3.8208945"
       ry="6.1823373"
       transform="rotate(-45)" />
    <ellipse
       style="opacity:1;fill:#c8aa50;fill-opacity:1;stroke:none;stroke-width:9.65534878;stroke-miterlimit:4;stroke-dasharray:none;stroke-opacity:1"
       id="path816-2-19-1"
       cx="-114.56546"
       cy="149.64232"
       rx="3.8208945"
       ry="6.1823373"
       transform="rotate(-45)" />
    <ellipse
       style="opacity:1;fill:#c8aa50;fill-opacity:1;stroke:none;stroke-width:9.65534878;stroke-miterlimit:4;stroke-dasharray:none;stroke-opacity:1"
       id="path816-2-19-4"
       cx="209.59825"
       cy="175.17314"
       rx="3.8208945"
       ry="6.1823373"
       transform="rotate(45)" />
    <ellipse
       style="opacity:1;fill:#c8aa50;fill-opacity:1;stroke:none;stroke-width:9.65534878;stroke-miterlimit:4;stroke-dasharray:none;stroke-opacity:1"
       id="path816-2-19-4-4"
       cx="209.7612"
       cy="53.143211"
       rx="3.8208945"
       ry="6.1823373"
       transform="rotate(45)" />
    <circle
       style="opacity:1;fill:none;fill-opacity:0;stroke:#c8aa50;stroke-width:3.7204802;stroke-miterlimit:4;stroke-dasharray:none;stroke-opacity:1"
       id="path4626"
       cx="67.432732"
       cy="229.37311"
       r="11.688928" />
  </g>
</svg>
